<svg width="100" height="100" xmlns="http://www.w3.org/2000/svg">

 <g>
  <title>Layer 1</title>
  <g stroke="null" id="svg_18">
   <path stroke="null" id="svg_1" d="m80.57214,98.10213l-61.79619,0c-9.3853,0 -16.99395,-7.60866 -16.99395,-16.99395l0,-61.79619c0,-9.3853 7.60866,-16.99395 16.99395,-16.99395l61.79619,0c9.3853,0 16.99395,7.60866 16.99395,16.99395l0,61.79619c0,9.3853 -7.60866,16.99395 -16.99395,16.99395z" fill="#fefdef"/>
   <path stroke="null" id="svg_2" d="m99.111,28.58142l-97.32899,0l0,-9.26943c0,-10.23808 8.30077,-18.53886 18.53886,-18.53886l60.25128,0c10.23808,0 18.53886,8.30077 18.53886,18.53886l0,9.26943z" fill="#fbb822"/>
   <circle stroke="null" id="svg_3" fill="#1f212b" r="1.5449" cy="33.21614" cx="9.50653"/>
   <circle stroke="null" id="svg_4" fill="#1f212b" r="1.5449" cy="33.21614" cx="15.68615"/>
   <circle stroke="null" id="svg_5" fill="#1f212b" r="1.5449" cy="33.21614" cx="21.86577"/>
   <circle stroke="null" id="svg_6" fill="#1f212b" r="1.5449" cy="33.21614" cx="28.04539"/>
   <circle stroke="null" id="svg_7" fill="#1f212b" r="1.5449" cy="33.21614" cx="34.225"/>
   <circle stroke="null" id="svg_8" fill="#1f212b" r="1.5449" cy="33.21614" cx="40.40462"/>
   <circle stroke="null" id="svg_9" fill="#1f212b" r="1.5449" cy="33.21614" cx="46.58424"/>
   <circle stroke="null" id="svg_10" fill="#1f212b" r="1.5449" cy="33.21614" cx="52.76386"/>
   <circle stroke="null" id="svg_11" fill="#1f212b" r="1.5449" cy="33.21614" cx="58.94348"/>
   <circle stroke="null" id="svg_12" fill="#1f212b" r="1.5449" cy="33.21614" cx="65.1231"/>
   <circle stroke="null" id="svg_13" fill="#1f212b" r="1.5449" cy="33.21614" cx="71.30272"/>
   <circle stroke="null" id="svg_14" fill="#1f212b" r="1.5449" cy="33.21614" cx="77.48233"/>
   <circle stroke="null" id="svg_15" fill="#1f212b" r="1.5449" cy="33.21614" cx="83.66195"/>
   <circle stroke="null" id="svg_16" fill="#1f212b" r="1.5449" cy="33.21614" cx="89.84157"/>
   <path stroke="null" id="svg_17" d="m80.68801,0.77314l-61.79619,0c-10.22263,0 -18.53886,8.31622 -18.53886,18.53886l0,61.79619c0,10.22263 8.31622,18.53886 18.53886,18.53886l61.79619,0c10.22263,0 18.53886,-8.31622 18.53886,-18.53886l0,-61.79619c0,-10.22263 -8.31622,-18.53886 -18.53886,-18.53886zm0,95.78409l-61.79619,0c-8.5186,0 -15.44905,-6.93044 -15.44905,-15.44905l0,-6.17962l9.92601,0c0.42639,0 0.77245,-0.34606 0.77245,-0.77245s-0.34606,-0.77245 -0.77245,-0.77245l-9.92601,0l0,-20.08376l62.45277,0c0.42639,0 0.77245,-0.34606 0.77245,-0.77245s-0.34606,-0.77245 -0.77245,-0.77245l-62.45277,0l0,-23.17357l9.92601,0c0.42639,0 0.77245,-0.34606 0.77245,-0.77245s-0.34606,-0.77245 -0.77245,-0.77245l-9.92601,0l0,-7.72452c0,-8.5186 6.93044,-15.44905 15.44905,-15.44905l61.79619,0c8.5186,0 15.44905,6.93044 15.44905,15.44905l0,7.72452l-78.13355,0c-0.42639,0 -0.77245,0.34606 -0.77245,0.77245s0.34606,0.77245 0.77245,0.77245l78.13355,0l0,23.17357l-25.60679,0c-0.42639,0 -0.77245,0.34606 -0.77245,0.77245s0.34606,0.77245 0.77245,0.77245l25.60679,0l0,20.08376l-78.13355,0c-0.42639,0 -0.77245,0.34606 -0.77245,0.77245s0.34606,0.77245 0.77245,0.77245l78.13355,0l0,6.17962c0,8.5186 -6.93199,15.44905 -15.44905,15.44905z" fill="#1f212b"/>
  </g>
 </g>
</svg>